<svg height="320" viewBox="0 0 900 320" width="900" xmlns="http://www.w3.org/2000/svg"><g fill="none" fill-rule="evenodd"><path d="m0 0h900v320h-900z" fill="#00a1d5"/><g fill="#fff" transform="translate(380 128)"><path d="m95.9708733 58.9700543c.867206-2.8906889.5781365-5.7813779-.8672081-7.5157912-1.4453426-1.7344135-3.4688259-2.890689-6.0704459-3.1797579l-50.2979876-.5781377c-.2890686 0-.5781376-.289069-.8672065-.289069-.289069-.2890689-.289069-.5781377 0-.8672066.2890689-.5781378.5781379-.8672067 1.1562754-.8672067l50.5870573-.5781377c6.070446-.289069 12.4299611-5.2032402 14.7425121-10.9846181l2.890689-7.5157913c0-.2890687.28907-.5781377 0-.8672066-3.179756-14.7425135-16.4769257-25.7271315-32.0866457-25.7271315-14.4534456 0-26.8834079 9.2502046-31.2194414 22.2583048-2.8906888-2.0234821-6.3595157-3.1797578-10.4064802-2.8906889-6.9376534.5781378-12.4299623 6.3595156-13.2971692 13.2971691-.2890688 1.7344133 0 3.4688267.289069 5.2032402-11.27368682.2890687-20.5238915 9.5392733-20.5238915 21.1020291 0 1.1562755 0 2.0234825.28906894 3.1797578 0 .5781377.57813787.8672068.86720659.8672068h92.79111427c.5781387 0 1.1562754-.2890691 1.1562754-.8672068z"/><path d="m111.869663 26.5943381h-1.445345c-.289069 0-.578139.289069-.867208.5781379l-2.023481 6.9376534c-.867206 2.8906889-.578139 5.7813779.867205 7.5157914 1.445345 1.7344133 3.468829 2.8906888 6.070449 3.1797577l10.695549.5781377c.289067 0 .578137.289069.867206.289069.289069.2890689.289069.5781379 0 .8672067-.289069.5781377-.578139.8672066-1.156275.8672066l-10.984619.5781379c-6.070446.2890688-12.429961 5.20324-14.7425142 10.9846179l-.5781365 2.60162c-.2890694.289069 0 .8672069.5781365.8672069h38.1570942c.578139 0 .867208-.2890691.867208-.8672069.578137-2.312551 1.156275-4.914171 1.156275-7.5157912 0-15.0315823-12.429963-27.461545-27.461544-27.461545"/></g></g></svg>