<svg fill="none" height="32" viewBox="0 0 71 32" width="71" xmlns="http://www.w3.org/2000/svg"><path clip-rule="evenodd" d="m48.6709 29.9062c.4398-1.4659.2932-2.9319-.4398-3.8115s-1.7591-1.466-3.0785-1.6126l-25.5083-.2932c-.1466 0-.2932-.1466-.4398-.1466-.1466-.1466-.1466-.2932 0-.4398.1466-.2932.2932-.4398.5864-.4398l25.6549-.2932c3.0785-.1466 6.3037-2.6388 7.4765-5.5708l1.466-3.8116c0-.1466.1466-.2932 0-.4398-1.6126-7.47653-8.3561-13.0473-16.2725-13.0473-7.33 0-13.6337 4.69117-15.8327 11.2881-1.466-1.0262-3.2252-1.61255-5.2776-1.46595-3.5184.29315-6.3038 3.22515-6.7436 6.74355-.1466.8796 0 1.7592.1466 2.6388-5.71733.1466-10.4085 4.8378-10.4085 10.7017 0 .5864-.00000039 1.0262.146599 1.6126 0 .2932.293199.4398.439798.4398h47.058303c.2932 0 .5864-.1466.5864-.4398zm8.063-16.4191h-.733c-.1466 0-.2932.1466-.4398.2932l-1.0262 3.5184c-.4398 1.466-.2932 2.932.4398 3.8116s1.7592 1.466 3.0786 1.6126l5.4242.2932c.1466 0 .2932.1466.4398.1466.1466.1466.1466.2932 0 .4398-.1466.2932-.2932.4398-.5864.4398l-5.5708.2932c-3.0786.1466-6.3038 2.6388-7.4766 5.5707l-.2932 1.3194c-.1466.1466 0 .4398.2932.4398h19.3511c.2932 0 .4398-.1466.4398-.4398.2932-1.1728.5864-2.4922.5864-3.8115 0-7.6232-6.3037-13.927-13.9269-13.927z" fill="#00a1d5" fill-rule="evenodd"/></svg>