<?xml version="1.0" encoding="UTF-8"?>
<svg width="100px" height="100px" viewBox="0 0 100 100" version="1.1" xmlns="http://www.w3.org/2000/svg" xmlns:xlink="http://www.w3.org/1999/xlink">
  <defs></defs>
  <g stroke="none" stroke-width="1" fill="none" fill-rule="evenodd">
    <g id="cloudflare-mask" fill="#00A1D5">
      <path d="M50,100 C22.3857625,100 0,77.6142375 0,50 C0,22.3857625 22.3857625,0 50,0 C77.6142375,0 100,22.3857625 100,50 C100,77.6142375 77.6142375,100 50,100 Z M63.6709429,59.9062418 C64.1107402,58.4402496 63.9641407,56.9742573 63.2311445,56.094662 C62.4981493,55.2150666 61.4719542,54.6286697 60.1525612,54.4820705 L34.6442961,54.1888721 C34.497697,54.1888721 34.3510977,54.0422728 34.2044985,54.0422728 C34.0578992,53.8956736 34.0578992,53.7490744 34.2044985,53.6024752 C34.3510977,53.3092767 34.497697,53.1626775 34.7908953,53.1626775 L60.4457601,52.8694791 C63.5243434,52.7228798 66.7495262,50.230693 67.9223197,47.2987085 L69.3883122,43.4871286 C69.3883122,43.3405295 69.5349116,43.1939302 69.3883122,43.047331 C67.7757213,35.5707705 61.0321569,30 53.1157989,30 C45.7858372,30 39.4820706,34.6911752 37.2830822,41.2881403 C35.81709,40.2619458 34.0578992,39.6755488 32.0055101,39.8221481 C28.4871287,40.1153465 25.7017435,43.047331 25.2619457,46.5657124 C25.1153465,47.4453077 25.2619457,48.3249031 25.408545,49.2044985 C19.6911752,49.3510976 15,54.0422728 15,59.9062418 C15,60.4926387 15,60.9324365 15.1465992,61.5188333 C15.1465992,61.8120317 15.4397977,61.958631 15.5863969,61.958631 L62.6447477,61.958631 C62.9379466,61.958631 63.2311445,61.8120317 63.2311445,61.5188333 L63.6709429,59.9062418 Z M71.7339003,43.4871286 L71.0009041,43.4871286 C70.8543046,43.4871286 70.7077052,43.6337279 70.5611057,43.7803271 L69.5349116,47.2987085 C69.0951143,48.7647007 69.2417127,50.230693 69.9747089,51.1102884 C70.7077052,51.9898837 71.7339003,52.5762806 73.0532933,52.7228798 L78.4774648,53.0160782 C78.6240632,53.0160782 78.7706626,53.1626775 78.9172621,53.1626775 C79.0638616,53.3092767 79.0638616,53.455876 78.9172621,53.6024752 C78.7706626,53.8956736 78.6240632,54.0422728 78.3308653,54.0422728 L72.7600944,54.3354713 C69.6815111,54.4820705 66.4563283,56.9742573 65.2835337,59.9062418 L64.9903359,61.2256348 C64.8437364,61.3722341 64.9903359,61.6654326 65.2835337,61.6654326 L84.6346314,61.6654326 C84.9278303,61.6654326 85.0744298,61.5188333 85.0744298,61.2256348 C85.3676276,60.0528411 85.6608266,58.7334481 85.6608266,57.414055 C85.6608266,49.7908954 79.3570594,43.4871286 71.7339003,43.4871286 Z"></path>
    </g>
  </g>
</svg>
