<svg height="100" viewBox="0 0 100 100" width="100" xmlns="http://www.w3.org/2000/svg"><g fill="none" fill-rule="evenodd"><circle cx="50" cy="50" fill="#00a1d5" r="50"/><g fill="#fff" fill-rule="nonzero" transform="translate(15 30)"><path d="m48.6709429 29.9062418c.4397973-1.4659922.2931978-2.9319845-.4397984-3.8115798-.7329952-.8795954-1.7591903-1.4659923-3.0785833-1.6125915l-25.5082651-.2931984c-.1465991 0-.2931984-.1465993-.4397976-.1465993-.1465993-.1465992-.1465993-.2931984 0-.4397976.1465992-.2931985.2931985-.4397977.5863968-.4397977l25.6548648-.2931984c3.0785833-.1465993 6.3037661-2.6387861 7.4765596-5.5707706l1.4659925-3.8115799c0-.1465991.1465994-.2931984 0-.4397976-1.6125909-7.47656046-8.3561553-13.047331-16.2725133-13.047331-7.3299617 0-13.6337283 4.69117519-15.8327167 11.2881403-1.4659922-1.0261945-3.225183-1.61259147-5.2775721-1.46599225-3.5183814.29319845-6.3037666 3.22518295-6.7435644 6.74356435-.1465992.8795953 0 1.7591907.1465993 2.6387861-5.71736977.1465991-10.408545 4.8377743-10.408545 10.7017433 0 .5863969 0 1.0261947.14659925 1.6125915 0 .2931984.29319849.4397977.43979763.4397977h47.05835082c.2931989 0 .5863968-.1465993.5863968-.4397977z"/><path d="m56.7339003 13.4871286h-.7329962c-.1465995 0-.2931989.1465993-.4397984.2931985l-1.0261941 3.5183814c-.4397973 1.4659922-.2931989 2.9319845.4397973 3.8115799.7329963.8795953 1.7591914 1.4659922 3.0785844 1.6125914l5.4241715.2931984c.1465984 0 .2931978.1465993.4397973.1465993.1465995.1465992.1465995.2931985 0 .4397977-.1465995.2931984-.2931989.4397976-.5863968.4397976l-5.5707709.2931985c-3.0785833.1465992-6.3037661 2.638786-7.4765607 5.5707705l-.2931978 1.319393c-.1465995.1465993 0 .4397978.2931978.4397978h19.3510977c.2931989 0 .4397984-.1465993.4397984-.4397978.2931978-1.1727937.5863968-2.4921867.5863968-3.8115798 0-7.6231596-6.3037672-13.9269264-13.9269263-13.9269264"/></g></g></svg>